# xmcd
# 
# Track frame offsets:
#     150
#     14768
#     34294
#     51940
#     66649
#     81007
#     96301
#     115907
#     133373
#     150827
#     166617
#     185803
#     199644
#     216330
#     234257
#     251873
#     267814
#     282022
# 
# Disc length: 3991
# 
# Revision: 14
# Processed by: cddbd v1.5.2PL0 Copyright (c) Steve Scherf et al.
# Submitted via: fre:ac v1.0.31
# 
DISCID=090f9512
DTITLE=Reba McEntire - Reba #1's [CD2]
DYEAR=2005
DGENRE=Country
TTITLE0=Love Needs A Holiday
TTITLE1=For My Broken Heart
TTITLE2=Is There Life Out There
TTITLE3=The Greatest Man I Never Knew
TTITLE4=It's Your Call
TTITLE5=The Heart Won't Lie (w/Vince Gill)
TTITLE6=Does He Love You (w/Linda Davis)
TTITLE7=Till You Love Me
TTITLE8=The Heart Is A Lonely Hunter
TTITLE9=And Still
TTITLE10=Ring On Her Finger, Time On Her Hands
TTITLE11=The Fear Of Being Alone
TTITLE12=How Was I To Know
TTITLE13=If You See Him, If You See Her (w/Brooks and Dunn)
TTITLE14=Forever Love
TTITLE15=What Do You Say
TTITLE16=I'm A Survivor
TTITLE17=Somebody
EXTD=
EXTT0=
EXTT1=
EXTT2=
EXTT3=
EXTT4=
EXTT5=
EXTT6=
EXTT7=
EXTT8=
EXTT9=
EXTT10=
EXTT11=
EXTT12=
EXTT13=
EXTT14=
EXTT15=
EXTT16=
EXTT17=
PLAYORDER=
